<svg xmlns="http://www.w3.org/2000/svg" viewBox="0 0 64 64"><rect width="64" height="64" rx="14" fill="#000"/><path transform="translate(-106.6 -45.7) scale(1.79)" d="M77.9081 56.35C76.0881 56.35 74.4081 56.035 72.8681 55.405C71.3281 54.7517 69.9865 53.8417 68.8431 52.675C67.7231 51.5083 66.8481 50.1317 66.2181 48.545C65.5881 46.935 65.2731 45.185 65.2731 43.295C65.2731 41.405 65.5765 39.6783 66.1831 38.115C66.8131 36.5517 67.6881 35.1983 68.8081 34.055C69.9515 32.8883 71.2931 32.0017 72.8331 31.395C74.3731 30.765 76.0648 30.45 77.9081 30.45C79.9848 30.45 81.8515 30.8583 83.5081 31.675C85.1881 32.4683 86.5531 33.6 87.6031 35.07C88.6765 36.5167 89.3298 38.22 89.5631 40.18H84.3131C84.0098 38.3833 83.2748 37.03 82.1081 36.12C80.9415 35.1867 79.5531 34.72 77.9431 34.72C76.5198 34.72 75.2598 35.0583 74.1631 35.735C73.0898 36.4117 72.2498 37.3917 71.6431 38.675C71.0365 39.935 70.7331 41.4633 70.7331 43.26C70.7331 45.08 71.0365 46.655 71.6431 47.985C72.2731 49.2917 73.1365 50.3067 74.2331 51.03C75.3298 51.73 76.5898 52.08 78.0131 52.08C79.5298 52.08 80.8715 51.625 82.0381 50.715C83.2048 49.805 83.9631 48.4517 84.3131 46.655H89.6331C89.3298 48.615 88.6415 50.33 87.5681 51.8C86.4948 53.2467 85.1298 54.3667 83.4731 55.16C81.8165 55.9533 79.9615 56.35 77.9081 56.35Z" fill="#FF6505"/></svg>
